<svg id="Layer_1" data-name="Layer 1" xmlns="http://www.w3.org/2000/svg" viewBox="0 0 104.59 100"><defs><style>.cls-1{fill:#37464f;}.cls-2{fill:#d34b44;}.cls-3{fill:none;}</style></defs><path class="cls-1" d="M18.94,34.38h29.5a2.38,2.38,0,0,0,2.43-2.32V15.65a2.38,2.38,0,0,0-2.43-2.31H23.64A2.41,2.41,0,0,0,21.3,15L16.6,31.45a2.21,2.21,0,0,0,.37,2A2.44,2.44,0,0,0,18.94,34.38Zm14.21-.29H26A10.49,10.49,0,0,1,28.06,30c1.05-1.12,1-1.37.53-2.74a30.62,30.62,0,0,1-1-3.69c-.71-3.53-.09-4.51.51-5.47a4.73,4.73,0,0,0,.68-1.48,3.09,3.09,0,0,0-.93-3H36c0,.56,0,2.66-1.17,3s-.81,1.13-.53,2.15a9.51,9.51,0,0,1,.42,2.15,3.34,3.34,0,0,1-.74,2.4,2.9,2.9,0,0,0-.69,2,9.17,9.17,0,0,0,.43,2.08c.35,1.21.69,2.36.05,3.27A4.9,4.9,0,0,0,33.15,34.09Zm9.73-20.46a2.65,2.65,0,0,1,.67,1.79,2.68,2.68,0,0,1-1.14,1.88c-.79.64-1.09,1-1.11,1.32s.19.49.42.72a3.08,3.08,0,0,1,1,2c.2,1.4,0,1.67-.38,2.08a4,4,0,0,0-1,2.24c-.33,1.82,0,2.35.29,2.75a.82.82,0,0,1,.16.82c-.27,1.09-1,4.26-1.17,4.9H38.51A14.47,14.47,0,0,0,39.29,28a6.32,6.32,0,0,1,.22-1.77,7.26,7.26,0,0,0,0-4A5.1,5.1,0,0,1,40,18.15c.12-.27.24-.55.35-.83.45-1.23-.35-3.07-.66-3.69Z"/><path class="cls-1" d="M55.89,34.38h29.5a2.44,2.44,0,0,0,2-1,2.25,2.25,0,0,0,.37-2L83,15a2.42,2.42,0,0,0-2.34-1.7H55.89a2.38,2.38,0,0,0-2.43,2.31V32.06A2.38,2.38,0,0,0,55.89,34.38ZM69.26,13.63h8c-.76.51-2.16,1.69-1.8,3.27a5.19,5.19,0,0,0,.57,1.42c.52,1,1,2,.33,5.62-.3,1.48-.57,2.51-.77,3.27-.5,1.88-.57,2.17.58,3.4s2.51,2.89,3,3.48h-7a5,5,0,0,0-.66-3.44c-.25-.36-.54-.72-.85-1.1-1-1.21-2-2.46-1.91-3.82a3.94,3.94,0,0,1,.79-2,5.49,5.49,0,0,0,1-2.76A10.15,10.15,0,0,1,71,18.78c.29-1,.51-1.83-.53-2.15S69.26,14.19,69.26,13.63Zm-7.82,0h3.23c-.3.62-1.1,2.46-.65,3.69.1.28.23.56.34.83a5.1,5.1,0,0,1,.41,4.09c-.29.9-.61,1.65-.88,2.31A9.39,9.39,0,0,0,63,27.29c-.09,1.05.9,3,1.86,4.93.34.68.66,1.32.92,1.87H63.66c-.19-.52-1.11-3-1.37-4.09a1.14,1.14,0,0,0-.61-.81c-.34-.21-.76-.46-1.07-2.2a5,5,0,0,1,.33-3.34,8.82,8.82,0,0,0,.66-2.35A5.69,5.69,0,0,1,62,19.63c.17-.42.12-.48-.3-1.09-.11-.15-.24-.33-.4-.57A3.47,3.47,0,0,1,61.44,13.63Z"/><path class="cls-1" d="M22.33,70.72a5.72,5.72,0,1,0-4-1.67A5.69,5.69,0,0,0,22.33,70.72Zm5-5.88a3.67,3.67,0,1,1-6-4,3.57,3.57,0,0,1,1.19-.8,4.56,4.56,0,0,1,4.8,4.8ZM18.7,61.37A5.13,5.13,0,0,1,21.13,60a5,5,0,0,0-1.85,1.15,4.87,4.87,0,0,0,6.89,6.89,4.75,4.75,0,0,0,1.15-1.85,5.14,5.14,0,1,1-8.62-4.83Z"/><path class="cls-1" d="M18.3,50.73a1.48,1.48,0,0,0-.9.31,1.46,1.46,0,1,0,1.39,2.57,1.48,1.48,0,0,0-.49-2.88Zm0,2.38a.9.9,0,1,1,.91-.9A.9.9,0,0,1,18.3,53.11Z"/><path class="cls-1" d="M86,61a5.71,5.71,0,1,0,1.68,4A5.73,5.73,0,0,0,86,61Zm-9,3.88a4.56,4.56,0,0,1,4.8-4.8,3.61,3.61,0,0,1,1.2.8,3.68,3.68,0,1,1-5.2,5.2A3.88,3.88,0,0,1,77,64.84Zm8.6,3.8A5.13,5.13,0,0,1,77,66.2,4.87,4.87,0,1,0,83.22,60a5.14,5.14,0,0,1,2.41,8.62Z"/><path class="cls-1" d="M86.93,51a1.48,1.48,0,1,0-1.4,2.57,1.52,1.52,0,0,0,.7.18,1.46,1.46,0,0,0,.7-2.75Zm-1.81,1.17a.91.91,0,1,1,.9.9A.9.9,0,0,1,85.12,52.21Z"/><path class="cls-2" d="M45.08,46.88a.44.44,0,0,0-.19,0c-.33,0-.68,0-1,0s-.31.32-.31.57v3.4c0,.22,0,.53.23.61a2.17,2.17,0,0,0,.51,0H45c.48,0,1-.09,1.38.28a1.43,1.43,0,0,1,.59,1v5.16a1.13,1.13,0,0,1-.16.72,3.06,3.06,0,0,1-.35.37,1,1,0,0,1-.52.35,3.28,3.28,0,0,1-.7,0H43.63a3.28,3.28,0,0,1-.7,0,1.1,1.1,0,0,1-.54-.36,4.26,4.26,0,0,1-.35-.38,1.55,1.55,0,0,1-.16-.82,2.64,2.64,0,0,0-.2-.73h2.07c-.08.19-.26.47,0,.6a1,1,0,0,0,.46,0h.63c.19,0,.39,0,.44-.25a1.33,1.33,0,0,0,0-.2V53.64c0-.24,0-.46-.25-.52a5.57,5.57,0,0,0-1,0c-.44,0-1.08.11-1.44-.19a1.73,1.73,0,0,1-.69-1c0-.3,0-.61,0-.91V47a3.23,3.23,0,0,1,0-.76,1.26,1.26,0,0,1,.36-.55,2.16,2.16,0,0,1,.42-.38,1.33,1.33,0,0,1,.71-.11h1.23a8.13,8.13,0,0,1,1.21,0,1.71,1.71,0,0,1,.93.73,1.16,1.16,0,0,1,.16.75,1.92,1.92,0,0,0,.18.82H45.05l.09-.2C45.2,47.13,45.27,47,45.08,46.88Z"/><path class="cls-2" d="M53.75,59.38H51.68a5,5,0,0,0,.21-2v-3c0-.3,0-.62,0-.93s-.24-.33-.48-.33h-.8c-.22,0-.41.06-.43.32v4.45a3.59,3.59,0,0,0,.19,1.49H48.3a4.92,4.92,0,0,0,.21-2V47.17a5,5,0,0,0-.21-2h2.07A4.51,4.51,0,0,0,50.18,47v4c0,.15,0,.31.18.39a1.78,1.78,0,0,0,.65,0,3.21,3.21,0,0,0,.62,0c.21,0,.26-.24.26-.42,0-1,0-1.94,0-2.92v-.93a5,5,0,0,0-.21-2h2.07a4.94,4.94,0,0,0-.19,2V58A3.15,3.15,0,0,0,53.75,59.38Z"/><path class="cls-2" d="M57,56.9h-2a2.54,2.54,0,0,0,.32-.91c.11-.75.22-1.5.32-2.24.06-.38.11-.76.17-1.13a2,2,0,0,1,.07-.46c0-.31.09-.62.13-.93l.54-3.74c.07-.45.13-.89.2-1.34l0-.23a1.14,1.14,0,0,0-.12-.7H58.7a1.13,1.13,0,0,0-.11.7.88.88,0,0,0,0,.16c0,.38.11.75.16,1.13.24,1.64.47,3.29.72,4.94.08.6.17,1.22.26,1.83s.15,1,.22,1.54a5.21,5.21,0,0,0,.2,1,3,3,0,0,0,.19.35h-2a2.12,2.12,0,0,0,.07-.66.17.17,0,0,0-.17-.17H57.07a.18.18,0,0,0-.17.17A2.84,2.84,0,0,0,57,56.9Zm3.19.64c0,.51,0,1,0,1.55s-.53.33-.83.33H55.61c-.33,0-.49-.1-.49-.45V57.54a5.92,5.92,0,0,0,2.3.2h1a6.67,6.67,0,0,0,1.41-.07A2.09,2.09,0,0,0,60.17,57.54Zm-3-3.34a.17.17,0,0,0,.17.2H58a.18.18,0,0,0,.17-.2c0-.34-.41-3.2-.46-3.64,0-.11-.05-.33-.09-.08s-.07.5-.1.75Z"/><path class="cls-2" d="M63.61,59.38H61.53a4.56,4.56,0,0,0,.21-1.91V46.9a4.16,4.16,0,0,0-.21-1.72h2.08a4.8,4.8,0,0,0-.19,2V58A3.15,3.15,0,0,0,63.61,59.38Z"/><path class="cls-1" d="M43.42,54.14a2.67,2.67,0,0,1-.9-.14,10.21,10.21,0,0,0,.57,2.07h.66a.93.93,0,0,1,.29,0A8.94,8.94,0,0,1,43.42,54.14Z"/><path class="cls-1" d="M59.61,45.62a.4.4,0,0,0,0,.16l0,.25a9,9,0,0,1,1.13,1.54v-.85a5.92,5.92,0,0,0,0-.76,9.85,9.85,0,0,0-1.13-1.2A.93.93,0,0,1,59.61,45.62Z"/><path class="cls-1" d="M59.44,60.42h-2A9.32,9.32,0,0,1,47,59.84a1.91,1.91,0,0,1-.89.5,3.29,3.29,0,0,1-.42,0,9.8,9.8,0,0,0,13.82,0Z"/><path class="cls-1" d="M47.08,44.76a9.32,9.32,0,0,1,10.31-.54H58.7a1.28,1.28,0,0,1,.33.06,10.22,10.22,0,0,0-12.76,0A2.23,2.23,0,0,1,47.08,44.76Z"/><path class="cls-1" d="M46.19,50.52a7.2,7.2,0,0,1,1.12-2.08.59.59,0,0,1-.19.05H46.3a7.4,7.4,0,0,0-.82,1.94A2.66,2.66,0,0,1,46.19,50.52Z"/><path class="cls-1" d="M54.67,45.59a1.44,1.44,0,0,0-.11.54,7.88,7.88,0,0,1,1,.41l.11-.77s0,0,0-.15a.19.19,0,0,1,0-.07,7.22,7.22,0,0,0-.92-.34A1,1,0,0,1,54.67,45.59Z"/><path class="cls-3" d="M93,36.3c0-.65,0-1.07,0-1.24a5.45,5.45,0,0,0-.13-.82H92.3a1.63,1.63,0,0,1-1.56-1.17l-5.08-17.3a1.62,1.62,0,0,1,1.12-2c-.17-.48-.31-.87-.43-1.15H18c-.11.28-.25.67-.42,1.15a1.63,1.63,0,0,1,1.12,2l-5.08,17.3A1.64,1.64,0,0,1,12,34.24h-.55a5.45,5.45,0,0,0-.13.82c0,.17,0,.59,0,1.24,0,2,0,3.91-.05,5.74H93C93,40.21,93,38.3,93,36.3Z"/><path class="cls-3" d="M5.14,35.59a2.87,2.87,0,0,1,0-5.71,2.74,2.74,0,0,1,2.59,2.86v.09L9,33.44a4.47,4.47,0,0,0,.07-.82,3.75,3.75,0,0,0-3.54-3.93A3.76,3.76,0,0,0,2,32.62a3.76,3.76,0,0,0,3.55,3.94,3.23,3.23,0,0,0,1.72-.5L6,35.44A2.31,2.31,0,0,1,5.14,35.59Z"/><path class="cls-3" d="M5,32.74c-.64,0-.71.82.13,1.22l5.3,2.59v-.26c0-.49,0-.85,0-1.07L5.53,32.86A1.16,1.16,0,0,0,5,32.74Z"/><path class="cls-3" d="M50.1,81.24c0-.06.65,2,1,3.63l1,0,1,0c.38-1.6,1-3.69,1-3.63.35-.95.73-1.88,1.14-2.81H49C49.36,79.36,49.75,80.29,50.1,81.24Z"/><path class="cls-3" d="M98.8,28.69a3.76,3.76,0,0,0-3.55,3.93,4.47,4.47,0,0,0,.08.82l1.27-.61s0-.06,0-.09a2.61,2.61,0,1,1,2.6,2.85,2.4,2.4,0,0,1-.84-.15l-1.27.62a3.23,3.23,0,0,0,1.72.5,3.76,3.76,0,0,0,3.55-3.94A3.76,3.76,0,0,0,98.8,28.69Z"/><path class="cls-3" d="M99.3,32.74a1.16,1.16,0,0,0-.5.12l-5,2.36c0,.22,0,.58,0,1.07v.26L99.16,34C100,33.56,99.94,32.74,99.3,32.74Z"/><path class="cls-3" d="M85.89,10.53l-33.73.12-33.73-.12c-.52,0-.87.16-1,.43l0,.13a.61.61,0,0,0,.33.64H86.57a.63.63,0,0,0,.34-.64C86.86,10.74,86.49,10.53,85.89,10.53Z"/><path class="cls-3" d="M84.71,9.66C74.08,1.18,52.4,1.39,52.17,1.4S30.24,1.18,19.62,9.66l32.54.11Z"/><path class="cls-1" d="M98.8,27.71a4.74,4.74,0,0,0-4.52,4.91,5,5,0,0,0,.15,1.24l-.71.34c-.81-4-5.34-18.74-6.52-21.83h0l0,0a.86.86,0,0,0,.14-.13l.05,0,.1-.14,0,0a2.12,2.12,0,0,0,.11-.21v0a1.52,1.52,0,0,0,.06-.2.64.64,0,0,1,0-.07c0-.06,0-.12,0-.17v-.08a1,1,0,0,0,0-.24,1,1,0,0,0,0-.22h0a1.8,1.8,0,0,0-.08-.21v0a2.14,2.14,0,0,0-.13-.19v0a1.29,1.29,0,0,0-.16-.17l0,0L87.1,10l0,0a.9.9,0,0,0-.24-.12l0,0-.29-.08h0a1.87,1.87,0,0,0-.35,0h0C75.52.29,53.11.51,52.17.52S28.81.29,18.26,9.66h0a1.78,1.78,0,0,0-.35,0h0l-.3.08,0,0a1.15,1.15,0,0,0-.25.12l0,0-.2.14,0,0a1.29,1.29,0,0,0-.16.17l0,0-.12.19v0a1.8,1.8,0,0,0-.08.21h0a2.25,2.25,0,0,0-.05.22,1.93,1.93,0,0,0,0,.24s0,0,0,.08a1.11,1.11,0,0,0,0,.17.64.64,0,0,1,0,.07.76.76,0,0,0,.06.2v0a2,2,0,0,0,.1.21l0,0,.1.14.05,0a.86.86,0,0,0,.14.13l0,0h0C16,15.46,11.41,30.17,10.6,34.2l-.7-.34a5.54,5.54,0,0,0,.15-1.24,4.74,4.74,0,0,0-4.52-4.91A4.74,4.74,0,0,0,1,32.62a4.74,4.74,0,0,0,4.53,4.92,4.34,4.34,0,0,0,2.71-1l2.21,1.08c0,1.53,0,3,0,4.41h.87c0-1.83,0-3.74.05-5.74,0-.65,0-1.07,0-1.24a5.45,5.45,0,0,1,.13-.82H12a1.64,1.64,0,0,0,1.56-1.17l5.08-17.3a1.63,1.63,0,0,0-1.12-2c.17-.48.31-.87.42-1.15H86.35c.12.28.26.67.43,1.15a1.62,1.62,0,0,0-1.12,2l5.08,17.3a1.63,1.63,0,0,0,1.56,1.17h.55a5.45,5.45,0,0,1,.13.82c0,.17,0,.59,0,1.24,0,2,0,3.91.05,5.74h.87c0-1.42,0-2.88,0-4.41l2.21-1.08a4.31,4.31,0,0,0,2.71,1,4.74,4.74,0,0,0,4.53-4.92A4.74,4.74,0,0,0,98.8,27.71ZM5.53,36.56A3.76,3.76,0,0,1,2,32.62a3.76,3.76,0,0,1,3.55-3.93,3.75,3.75,0,0,1,3.54,3.93,4.47,4.47,0,0,1-.07.82l-1.27-.61v-.09a2.74,2.74,0,0,0-2.59-2.86,2.87,2.87,0,0,0,0,5.71A2.31,2.31,0,0,0,6,35.44l1.28.62A3.23,3.23,0,0,1,5.53,36.56Zm4.94-.27v.26L5.16,34c-.84-.4-.77-1.22-.13-1.22a1.16,1.16,0,0,1,.5.12l5,2.36C10.47,35.44,10.47,35.8,10.47,36.29ZM52.17,1.4c.23,0,21.91-.22,32.54,8.26l-32.55.11L19.62,9.66C30.24,1.18,51.93,1.39,52.17,1.4Zm34.4,10.33H17.75a.61.61,0,0,1-.33-.64l0-.13c.11-.27.46-.43,1-.43l33.73.12,33.73-.12c.6,0,1,.21,1,.56A.63.63,0,0,1,86.57,11.73Zm7.29,24.82v-.26c0-.49,0-.85,0-1.07l5-2.36a1.16,1.16,0,0,1,.5-.12c.64,0,.71.82-.14,1.22Zm4.94,0a3.23,3.23,0,0,1-1.72-.5l1.27-.62a2.4,2.4,0,0,0,.84.15,2.87,2.87,0,1,0-2.6-2.85s0,.06,0,.09l-1.27.61a4.47,4.47,0,0,1-.08-.82,3.57,3.57,0,1,1,7.1,0A3.76,3.76,0,0,1,98.8,36.56Z"/><path class="cls-1" d="M11.54,78.46c-2.44.26-3.62,2.44-3.62,6.65A3,3,0,0,0,9,87.18c.93.93,2.74,2.08,6.24,3.16.17,2.24.52,6,1,6.91.63,1.3,10.82,2.46,12.06,1.82a21.39,21.39,0,0,0,1.19-6.22,226,226,0,0,0,22.71.83h2c8.51,0,15.3-.32,20.72-.85a21.41,21.41,0,0,0,1.19,6.23c1.24.64,11.42-.52,12.06-1.82.44-.9.78-4.67,1-6.91,3.5-1.08,5.3-2.23,6.23-3.16a3,3,0,0,0,1.09-2.07c0-4.21-1.19-6.39-3.62-6.65l-.34.56c1.17,0,2.58.52,3.13,3.26-.29.79-1.55,3-6.78,4.24-12.23,2.93-29.06,2.72-36.64,2.92-7.58-.2-24.4,0-36.63-2.92C10.3,85.27,9,83.07,8.74,82.29c.56-2.75,2-3.23,3.14-3.27Z"/><path class="cls-1" d="M77.39,69.49a6.51,6.51,0,1,1,9.21,0A6.52,6.52,0,0,1,77.39,69.49ZM77,59.87A7.08,7.08,0,0,0,81.61,72a7.08,7.08,0,1,1-.19-14.15h.19A7.05,7.05,0,0,0,77,59.87Zm6.8-7.66a2.45,2.45,0,1,1,2.45,2.45A2.46,2.46,0,0,1,83.78,52.21Zm2.45-3a3,3,0,0,0-1.72,5.54,3.19,3.19,0,1,1,4.22-4.22A3,3,0,0,0,86.23,49.17Zm-70.59,3a2.46,2.46,0,1,1,2.46,2.45A2.46,2.46,0,0,1,15.64,52.21Zm4.17,2.5a3,3,0,1,0-4.21-4.22,3.18,3.18,0,1,1,4.21,4.22Zm-2.08,5.57a6.51,6.51,0,1,1,0,9.21A6.47,6.47,0,0,1,17.73,60.28Zm9.62,9.62a7.08,7.08,0,0,0-4.64-12.09h.19A7.08,7.08,0,1,1,22.71,72,7.06,7.06,0,0,0,27.35,69.9ZM11.88,79a1.5,1.5,0,0,0,.29.88c.94,1.4,4.28,3.25,14.9,4.08C43.14,85.24,52.08,85,52.16,85s9,.21,25.1-1.06c10.62-.83,14-2.68,14.9-4.08a1.57,1.57,0,0,0,.29-.88l.34-.55C93.4,74.22,94,64.53,93.91,42.1H93a8.78,8.78,0,0,0-4.27,1.33c-6.86,4.28-27.55,18.47-34.54,37.68,0-.05-.65,2-1,3.63H51.13c-.38-1.6-1-3.68-1-3.63-7-19.21-27.69-33.4-34.54-37.68a8.78,8.78,0,0,0-4.27-1.33h-.87c-.13,22.34.5,32.12,1.12,36.36Z"/></svg>