<svg id="Layer_1" data-name="Layer 1" xmlns="http://www.w3.org/2000/svg" viewBox="0 0 200 100"><defs><style>.cls-1{fill:#d34b44;}.cls-2{fill:#37464f;}.cls-3{fill:#fff;}</style></defs><path class="cls-1" d="M199,5.38H84.39a24.43,24.43,0,0,1,2.77,2l.26.07.11,0c.18.07.36.14.54.23l.13.07a3.15,3.15,0,0,1,.47.3l.08.06a3.55,3.55,0,0,1,.44.38l0,0a3,3,0,0,1,.34.42l0,.07a3.47,3.47,0,0,1,.27.46l0,.09a2.92,2.92,0,0,1,.19.49s0,.05,0,.08a3.46,3.46,0,0,1,.11.52c0,.12,0,.24,0,.36v.36c0,.05,0,.09,0,.13v0c0,.06,0,.13,0,.19s0,.08,0,.12a1.09,1.09,0,0,1,0,.22l0,.13-.06.21a.56.56,0,0,1,0,.12l-.07.19v0c.81,2.35,2.24,6.86,3.53,11.23.37,1.23.71,2.4,1,3.49a6.27,6.27,0,0,1,4.26-1.69,6.69,6.69,0,0,1,6.48,6.86,6.69,6.69,0,0,1-6.48,6.87,6.13,6.13,0,0,1-2.42-.5c0,1.06,0,2.1,0,3.13a.22.22,0,0,1,0,.08c.06,10.11,0,24-.71,32.55l-.08,1c0,.19-.08.85-.08.85l0,.32.21.12.2.14.35.27.18.16a4,4,0,0,1,.35.36.6.6,0,0,1,.11.12,4.26,4.26,0,0,1,.41.54l.09.12c.1.16.19.31.27.47a1.74,1.74,0,0,1,.1.19c.08.17.15.31.21.46a2.29,2.29,0,0,1,.1.23l.18.5v0a1.42,1.42,0,0,1,0,.16,6.29,6.29,0,0,1,.17.62.19.19,0,0,1,0,.07,14.68,14.68,0,0,1,.32,2.13h93l-3.63-19.36Z"/><path class="cls-2" d="M92.79,78.63c.65-4.51,1.34-15.3,1.09-40.94l2.21-1.09a4.26,4.26,0,0,0,2.71,1,4.73,4.73,0,0,0,4.53-4.91,4.54,4.54,0,1,0-9,0,5.07,5.07,0,0,0,.15,1.24l-.71.34c-.81-4-5.34-18.75-6.52-21.84h0l0,0,.14-.13a.12.12,0,0,1,.05,0l.1-.14,0-.05a2.12,2.12,0,0,0,.11-.21v0a1.39,1.39,0,0,0,.06-.19s0-.05,0-.08,0-.11,0-.17v-.07a1,1,0,0,0,0-.24.87.87,0,0,0,0-.22h0a1.8,1.8,0,0,0-.08-.21v0a2.14,2.14,0,0,0-.13-.19v0l-.16-.18,0,0L87.1,10l0,0-.24-.12h0l-.29-.09h0l-.35,0h0C75.52.35,53.11.57,52.17.58S28.81.35,18.26,9.72h0l-.35,0h0l-.3.09h0l-.25.12,0,0-.2.15,0,0-.16.18,0,0-.12.19v0a1.8,1.8,0,0,0-.08.21h0a1.74,1.74,0,0,0-.05.22,1.93,1.93,0,0,0,0,.24s0,.05,0,.07a.88.88,0,0,0,0,.17s0,.05,0,.08a.7.7,0,0,0,.06.19v0a2,2,0,0,0,.1.21l0,.05.1.14s0,0,.05,0a.86.86,0,0,0,.14.13l0,0h0C16,15.51,11.41,30.23,10.6,34.26l-.7-.34a5.61,5.61,0,0,0,.15-1.24,4.73,4.73,0,0,0-4.52-4.91A4.73,4.73,0,0,0,1,32.68a4.73,4.73,0,0,0,4.53,4.91,4.28,4.28,0,0,0,2.71-1l2.21,1.09c-.25,25.64.43,36.43,1.09,40.94-2.44.26-3.62,2.44-3.62,6.65A3,3,0,0,0,9,87.35c.93.93,2.74,2.08,6.24,3.16.17,2.25.52,6,1,6.91.63,1.3,10.82,2.46,12.06,1.83A21.52,21.52,0,0,0,29.45,93c5.84.56,13.26.89,22.71.84h2c8.51,0,15.3-.32,20.72-.84a21.52,21.52,0,0,0,1.19,6.23c1.24.63,11.42-.53,12.06-1.83.44-.9.78-4.66,1-6.91,3.5-1.08,5.3-2.23,6.23-3.16a3,3,0,0,0,1.09-2.07C96.41,81.07,95.22,78.89,92.79,78.63Zm2.46-45.95a3.57,3.57,0,1,1,7.1,0,3.76,3.76,0,0,1-3.55,3.94,3.32,3.32,0,0,1-1.72-.5l1.27-.62a2.65,2.65,0,0,0,.84.15,2.87,2.87,0,1,0-2.6-2.86s0,.07,0,.1l-1.27.6A4.28,4.28,0,0,1,95.25,32.68Zm3.55.24a1.2,1.2,0,0,1,.5-.13c.64,0,.71.83-.14,1.23-1.11.53-3.76,1.83-5.3,2.59v-.26c0-.5,0-.86,0-1.07ZM5.53,36.62A3.76,3.76,0,0,1,2,32.68a3.76,3.76,0,0,1,3.55-3.93,3.75,3.75,0,0,1,3.54,3.93,4.28,4.28,0,0,1-.07.81l-1.27-.6v-.1a2.74,2.74,0,0,0-2.59-2.86,2.87,2.87,0,0,0,0,5.72A2.54,2.54,0,0,0,6,35.5l1.28.62A3.32,3.32,0,0,1,5.53,36.62Zm4.94-.27v.26c-1.54-.76-4.18-2.06-5.3-2.59-.84-.4-.77-1.23-.13-1.23a1.2,1.2,0,0,1,.5.13l5,2.36C10.47,35.49,10.47,35.85,10.47,36.35Zm.87,0c0-.65,0-1.08,0-1.24a5.72,5.72,0,0,1,.13-.83H12a1.63,1.63,0,0,0,1.56-1.16l5.08-17.3a1.63,1.63,0,0,0-1.12-2c.17-.48.31-.87.42-1.15H86.35c.12.28.26.67.43,1.15a1.62,1.62,0,0,0-1.12,2l5.08,17.3a1.62,1.62,0,0,0,1.56,1.16h.55a5.72,5.72,0,0,1,.13.83c0,.16,0,.59,0,1.24,0,2.06,0,4,.05,5.92a9,9,0,0,0-4.27,1.33C81.91,47.89,61.22,62.09,54.23,81.3c0-.06-.65,2-1,3.62H51.13c-.38-1.6-1-3.68-1-3.62-7-19.21-27.68-33.41-34.54-37.69a9,9,0,0,0-4.27-1.33C11.3,40.4,11.32,38.42,11.34,36.36Zm66.05,33.3a6.51,6.51,0,1,1,9.21,0A6.51,6.51,0,0,1,77.39,69.66ZM77,60.05a7.07,7.07,0,0,0,4.63,12.08A7.08,7.08,0,1,1,81.42,58h.19A7.05,7.05,0,0,0,77,60.05Zm6.8-7.67a2.46,2.46,0,1,1,2.45,2.45A2.45,2.45,0,0,1,83.78,52.38Zm2.45-3a3,3,0,0,0-1.72,5.54,3.18,3.18,0,1,1,4.22-4.22A3,3,0,0,0,86.23,49.34Zm-70.59,3a2.46,2.46,0,1,1,2.46,2.45A2.46,2.46,0,0,1,15.64,52.38Zm4.17,2.5a3,3,0,1,0-4.21-4.22,3.18,3.18,0,1,1,4.21,4.22Zm-2.08,5.58a6.51,6.51,0,1,1,0,9.2A6.48,6.48,0,0,1,17.73,60.46Zm9.62,9.62A7.08,7.08,0,0,0,22.71,58h.19a7.08,7.08,0,1,1-.19,14.15A7.09,7.09,0,0,0,27.35,70.08ZM11.88,79.19a1.5,1.5,0,0,0,.29.88c.94,1.4,4.28,3.24,14.9,4.08,16.07,1.26,25,1.06,25.09,1s9,.21,25.1-1c10.62-.84,14-2.68,14.9-4.08a1.57,1.57,0,0,0,.29-.88c1.17,0,2.58.52,3.13,3.27-.29.78-1.55,3-6.78,4.23-12.23,2.94-29.06,2.72-36.64,2.92-7.58-.2-24.4,0-36.63-2.92C10.3,85.44,9,83.24,8.74,82.46,9.3,79.71,10.7,79.23,11.88,79.19ZM52.17,1.45c.23,0,21.91-.21,32.54,8.27l-32.55.11L19.62,9.72C30.24,1.24,51.93,1.45,52.17,1.45Zm-34.75,9.7,0-.13c.11-.27.46-.43,1-.43l33.73.11,33.73-.11c.6,0,1,.2,1,.56a.62.62,0,0,1-.34.63H17.75A.6.6,0,0,1,17.42,11.15Z"/><path class="cls-2" d="M18.94,34.44h29.5a2.38,2.38,0,0,0,2.43-2.32V15.71a2.38,2.38,0,0,0-2.43-2.32H23.64A2.41,2.41,0,0,0,21.3,15.1L16.6,31.51a2.19,2.19,0,0,0,.37,2A2.42,2.42,0,0,0,18.94,34.44Zm14.21-.29H26A10.43,10.43,0,0,1,28.06,30c1.05-1.13,1-1.37.53-2.74a31.73,31.73,0,0,1-1-3.69c-.71-3.53-.09-4.52.51-5.47a4.73,4.73,0,0,0,.68-1.48,3.11,3.11,0,0,0-.93-3H36c0,.57,0,2.67-1.17,3s-.81,1.12-.53,2.14A9.61,9.61,0,0,1,34.76,21,3.3,3.3,0,0,1,34,23.38a2.94,2.94,0,0,0-.69,2,9,9,0,0,0,.43,2.08c.35,1.22.69,2.37.05,3.27A4.93,4.93,0,0,0,33.15,34.15Zm9.73-20.47a2.69,2.69,0,0,1,.67,1.8,2.68,2.68,0,0,1-1.14,1.88c-.79.64-1.09,1-1.11,1.32s.19.49.42.72a3,3,0,0,1,1,2c.2,1.4,0,1.67-.38,2.08a4,4,0,0,0-1,2.24c-.33,1.82,0,2.35.29,2.74a.84.84,0,0,1,.16.83c-.27,1.08-1,4.26-1.17,4.9H38.51a14.49,14.49,0,0,0,.78-6.1,6.25,6.25,0,0,1,.22-1.76,7.26,7.26,0,0,0,0-4A5.13,5.13,0,0,1,40,18.2c.12-.26.24-.54.35-.82.45-1.23-.35-3.07-.66-3.7Z"/><path class="cls-2" d="M55.89,34.44h29.5a2.42,2.42,0,0,0,2-1,2.22,2.22,0,0,0,.37-2L83,15.1a2.42,2.42,0,0,0-2.34-1.71H55.89a2.38,2.38,0,0,0-2.43,2.32V32.12A2.38,2.38,0,0,0,55.89,34.44ZM69.26,13.68h8c-.76.51-2.16,1.7-1.8,3.27a5.14,5.14,0,0,0,.57,1.43c.52,1,1,2,.33,5.61-.3,1.48-.57,2.52-.77,3.28-.5,1.88-.57,2.17.58,3.4s2.51,2.89,3,3.48h-7a5,5,0,0,0-.66-3.45c-.25-.36-.54-.72-.85-1.1-1-1.2-2-2.45-1.91-3.82a4,4,0,0,1,.79-2,5.41,5.41,0,0,0,1-2.75A10.38,10.38,0,0,1,71,18.83c.29-1,.51-1.83-.53-2.14S69.26,14.25,69.26,13.68Zm-7.82,0h3.23c-.3.63-1.1,2.47-.65,3.7.1.28.23.56.34.82a5.13,5.13,0,0,1,.41,4.1c-.29.9-.61,1.65-.88,2.31A9.43,9.43,0,0,0,63,27.34c-.09,1.06.9,3,1.86,4.94.34.67.66,1.31.92,1.87H63.66c-.19-.52-1.11-3-1.37-4.09a1.16,1.16,0,0,0-.61-.82c-.34-.2-.76-.45-1.07-2.19a5,5,0,0,1,.33-3.34,8.82,8.82,0,0,0,.66-2.35A5.69,5.69,0,0,1,62,19.69c.17-.42.12-.48-.3-1.09l-.4-.58A3.48,3.48,0,0,1,61.44,13.68Z"/><path class="cls-2" d="M22.33,70.78a5.72,5.72,0,1,0-4-1.67A5.69,5.69,0,0,0,22.33,70.78Zm5-5.88a3.54,3.54,0,0,1-.79,1.19,3.67,3.67,0,1,1-5.2-5.19,3.42,3.42,0,0,1,1.19-.8,4.56,4.56,0,0,1,4.8,4.8ZM18.7,61.43a5.13,5.13,0,0,1,2.43-1.36,4.83,4.83,0,0,0-1.85,1.15,4.87,4.87,0,0,0,6.89,6.89,4.83,4.83,0,0,0,1.15-1.85A5,5,0,0,1,26,68.69a5.13,5.13,0,1,1-7.26-7.26Z"/><path class="cls-2" d="M18.3,50.78a1.43,1.43,0,0,0-.9.32,1.45,1.45,0,0,0-.77,1.28,1.47,1.47,0,0,0,1.47,1.47,1.35,1.35,0,0,0,.69-.19,1.48,1.48,0,0,0-.49-2.88Zm0,2.39a.9.9,0,1,1,.91-.9A.9.9,0,0,1,18.3,53.17Z"/><path class="cls-2" d="M86,61A5.73,5.73,0,0,0,78,61a5.73,5.73,0,0,0,0,8.09,5.73,5.73,0,0,0,9.77-4A5.67,5.67,0,0,0,86,61ZM77,64.9a4.6,4.6,0,0,1,1.33-3.47,4.55,4.55,0,0,1,3.47-1.33,3.46,3.46,0,0,1,1.2.8,3.67,3.67,0,1,1-5.2,5.19A3.72,3.72,0,0,1,77,64.9Zm8.6,3.79A5.14,5.14,0,0,1,77,66.26a5,5,0,0,0,1.16,1.85A4.87,4.87,0,0,0,85,61.22a4.74,4.74,0,0,0-1.82-1.14,5,5,0,0,1,2.41,1.35,5.14,5.14,0,0,1,0,7.26Z"/><path class="cls-2" d="M86.93,51.1a1.44,1.44,0,0,0-.91-.32,1.48,1.48,0,0,0-.49,2.88,1.41,1.41,0,0,0,.7.19,1.46,1.46,0,0,0,.7-2.75Zm-1.81,1.17a.91.91,0,1,1,.9.9A.9.9,0,0,1,85.12,52.27Z"/><path class="cls-2" d="M42.36,52.38A10.19,10.19,0,0,0,43.44,57a9.85,9.85,0,0,0,18.41,0,10.28,10.28,0,1,0-19.49-4.57ZM52.64,43a9.41,9.41,0,1,1-9.4,9.4A9.41,9.41,0,0,1,52.64,43Z"/><path class="cls-2" d="M52.64,59.8a7.42,7.42,0,1,0-7.42-7.42A7.42,7.42,0,0,0,52.64,59.8Zm0-13.89a6.79,6.79,0,1,1-6.79,6.79A6.79,6.79,0,0,1,52.64,45.91Z"/><path class="cls-3" d="M119.54,19.39a1.41,1.41,0,0,0-.61-.08c-1.1,0-2.25-.09-3.33,0s-1,1.06-1,1.87V32.43c0,.74-.16,1.76.77,2a6.36,6.36,0,0,0,1.69,0h2.19c1.59,0,3.35-.31,4.56.93,1,1,2,1.88,2,3.45v17a3.79,3.79,0,0,1-.55,2.41A12.14,12.14,0,0,1,124,59.55a3.48,3.48,0,0,1-1.74,1.14,10.4,10.4,0,0,1-2.3.06h-5.24a10.4,10.4,0,0,1-2.3-.06,3.44,3.44,0,0,1-1.78-1.19,9.22,9.22,0,0,1-1.16-1.26,5.29,5.29,0,0,1-.55-2.71,8,8,0,0,0-.65-2.41h6.86c-.28.62-.88,1.54-.06,2a3.44,3.44,0,0,0,1.53.13h2.08c.63,0,1.3-.1,1.46-.86a3.64,3.64,0,0,0,0-.66V41.78c0-.8.18-1.55-.83-1.73a19.24,19.24,0,0,0-3.31,0c-1.46,0-3.56.39-4.77-.63-1-.8-2.16-2-2.26-3.29-.08-1,0-2,0-3V19.72a10.44,10.44,0,0,1,.08-2.5,4.09,4.09,0,0,1,1.21-1.82,6.45,6.45,0,0,1,1.39-1.27,4.5,4.5,0,0,1,2.35-.36h4.07a28,28,0,0,1,4,0c1.21.18,2.38,1.45,3.08,2.41a3.91,3.91,0,0,1,.55,2.5,6.25,6.25,0,0,0,.59,2.7h-6.86c.1-.22.19-.44.28-.66C120,20.24,120.18,19.65,119.54,19.39Z"/><path class="cls-3" d="M148.25,60.75H141.4c.91-2.11.69-4.44.69-6.69V44.23c0-1,.08-2.07,0-3.09S141.28,40,140.5,40h-2.63c-.73,0-1.35.21-1.42,1.07,0,.34,0,.69,0,1V55.82a11.57,11.57,0,0,0,.62,4.93h-6.85c.91-2.11.69-4.43.69-6.68V20.36c0-2.23.21-4.5-.69-6.59h6.85c-.85,1.92-.62,4-.62,6.05V33.08c0,.53,0,1.05.59,1.31a5.54,5.54,0,0,0,2.15.11,10.58,10.58,0,0,0,2,0c.71-.15.86-.78.87-1.39,0-3.21,0-6.43,0-9.64V20.36c0-2.22.21-4.5-.69-6.59h6.85c-.9,2.05-.62,4.39-.62,6.59v35.9A10.52,10.52,0,0,0,148.25,60.75Z"/><path class="cls-3" d="M159,52.54h-6.79a8,8,0,0,0,1.05-3c.36-2.47.71-4.94,1.07-7.4l.54-3.75a8.49,8.49,0,0,1,.23-1.53c.15-1,.3-2,.44-3.07q.9-6.18,1.79-12.37c.22-1.48.43-2.95.65-4.43,0-.25.07-.5.1-.75a3.88,3.88,0,0,0-.38-2.32h7a4,4,0,0,0-.37,2.32c0,.17,0,.35.08.52l.54,3.73c.79,5.44,1.56,10.89,2.36,16.34.3,2,.59,4,.88,6.07.25,1.7.49,3.39.74,5.08a16.42,16.42,0,0,0,.66,3.42,6.33,6.33,0,0,0,.61,1.15h-6.79a8,8,0,0,0,.26-2.16.58.58,0,0,0-.57-.57h-3.77a.57.57,0,0,0-.57.56A8.17,8.17,0,0,0,159,52.54Zm10.54,2.12c0,1.7.13,3.45,0,5.15-.1,1.41-1.76,1.08-2.75,1.08H154.39c-1.07,0-1.61-.34-1.61-1.48V54.66c2.35,1,5.1.69,7.62.69h3.25a22.08,22.08,0,0,0,4.67-.24A6.9,6.9,0,0,0,169.49,54.66Zm-10-11a.56.56,0,0,0,.56.64h2.26a.57.57,0,0,0,.56-.64c-.15-1.14-1.33-10.59-1.53-12.07-.05-.35-.16-1.07-.29-.24s-.21,1.65-.32,2.47Z"/><path class="cls-3" d="M180.86,60.75H174c.87-2,.69-4.18.69-6.32,0-1.69,0-3.38,0-5.07V23.62c0-1.39,0-2.77,0-4.17a13.83,13.83,0,0,0-.69-5.68h6.86c-.92,2.06-.62,4.4-.62,6.61V56.25A10.39,10.39,0,0,0,180.86,60.75Z"/><path class="cls-3" d="M111.88,64a.75.75,0,0,1,.55.23.73.73,0,0,1,.23.55v8.91a.7.7,0,0,1-.23.54.75.75,0,0,1-.55.23h-3.09V64Zm-.51,1.29h-1.29v7.88h1.29Z"/><path class="cls-3" d="M113.88,74.48a.79.79,0,0,1-.78-.77V64.8a.76.76,0,0,1,.23-.55.75.75,0,0,1,.55-.23h2.32a.75.75,0,0,1,.55.23.76.76,0,0,1,.23.55v8.91a.79.79,0,0,1-.78.77Zm.52-1.29h1.29V65.31H114.4Z"/><path class="cls-3" d="M121.29,64V74.48H120v-6.4l-1.29-2v8.43h-1.29V64h1.4L120,65.81V64Z"/><path class="cls-3" d="M124.83,64a.75.75,0,0,1,.55.23.76.76,0,0,1,.23.55v9.68h-1.29V72.29H123v2.19h-1.3V64.8a.76.76,0,0,1,.23-.55.75.75,0,0,1,.55-.23ZM123,71h1.29V65.31H123Z"/><path class="cls-3" d="M129.93,64v1.29h-1.3v9.17h-1.29V65.31h-1.29V64Z"/><path class="cls-3" d="M130.36,64h1.3V74.48h-1.3Z"/><path class="cls-3" d="M132.87,74.48a.79.79,0,0,1-.77-.77V64.8a.76.76,0,0,1,.23-.55.74.74,0,0,1,.54-.23h2.32a.79.79,0,0,1,.78.78v8.91a.7.7,0,0,1-.23.54.73.73,0,0,1-.55.23Zm.52-1.29h1.29V65.31h-1.29Z"/><path class="cls-3" d="M140.29,64V74.48H139v-6.4l-1.29-2v8.43h-1.3V64h1.41L139,65.81V64Z"/><path class="cls-3" d="M147.75,64a.74.74,0,0,1,.54.23.76.76,0,0,1,.23.55v1.61a1.53,1.53,0,0,1-.48,1.14,1.51,1.51,0,0,1-1.13.47h-1.1v6.46h-1.29V64Zm-.52,1.29h-1.42v1.43h1.1a.37.37,0,0,0,.23-.1.33.33,0,0,0,.09-.23Z"/><path class="cls-3" d="M150.25,64v9.17h2.58v1.29H149V64Z"/><path class="cls-3" d="M156.36,64a.79.79,0,0,1,.78.78v9.68h-1.29V72.29h-1.29v2.19h-1.29V64.8a.76.76,0,0,1,.23-.55A.74.74,0,0,1,154,64Zm-1.8,7h1.29V65.31h-1.29Z"/><path class="cls-3" d="M161.46,64v1.29h-1.3v9.17h-1.29V65.31h-1.29V64Z"/><path class="cls-3" d="M165.77,64v1.29h-2.58v1.43h2.58V68h-2.58v6.46h-1.3V64Z"/><path class="cls-3" d="M167,74.48a.73.73,0,0,1-.54-.23.7.7,0,0,1-.23-.54V64.8A.79.79,0,0,1,167,64h2.32a.75.75,0,0,1,.55.23.76.76,0,0,1,.23.55v8.91a.79.79,0,0,1-.78.77Zm.52-1.29h1.29V65.31H167.5Z"/><path class="cls-3" d="M174.52,66.41a1.54,1.54,0,0,1-.33,1,1.56,1.56,0,0,1,.33,1v6.13h-1.29V68.35a.32.32,0,0,0-.09-.23.34.34,0,0,0-.23-.1h-1.1v6.46h-1.29V64h3.23a.74.74,0,0,1,.54.23.76.76,0,0,1,.23.55Zm-1.61.33a.34.34,0,0,0,.23-.1.33.33,0,0,0,.09-.23v-1.1h-1.42v1.43Z"/><path class="cls-3" d="M180.38,64V74.48h-1.29V66.65L178.4,68h-1.46l-.69-1.37v7.83H175V64h1.29l1.41,2.7,1.43-2.7h1.29Z"/></svg>